<mxfile host="65bd71144e">
    <diagram id="XQmXUNwAuM1xtOiIulqf" name="PÃ¡gina-1">
        <mxGraphModel dx="1333" dy="695" grid="1" gridSize="10" guides="1" tooltips="1" connect="1" arrows="1" fold="1" page="1" pageScale="1" pageWidth="827" pageHeight="1169" math="0" shadow="0">
            <root>
                <mxCell id="0"/>
                <mxCell id="1" parent="0"/>
                <mxCell id="36" value="" style="rounded=0;whiteSpace=wrap;html=1;" parent="1" vertex="1">
                    <mxGeometry x="69" y="45" width="690" height="540" as="geometry"/>
                </mxCell>
                <mxCell id="29" style="edgeStyle=none;html=1;entryX=0;entryY=0.333;entryDx=0;entryDy=0;entryPerimeter=0;" parent="1" source="4" target="15" edge="1">
                    <mxGeometry relative="1" as="geometry">
                        <Array as="points">
                            <mxPoint x="370" y="323"/>
                            <mxPoint x="369" y="181"/>
                        </Array>
                    </mxGeometry>
                </mxCell>
                <mxCell id="30" style="edgeStyle=none;html=1;entryX=-0.019;entryY=0.133;entryDx=0;entryDy=0;entryPerimeter=0;exitX=1;exitY=0.133;exitDx=0;exitDy=0;exitPerimeter=0;" parent="1" source="24" target="18" edge="1">
                    <mxGeometry relative="1" as="geometry"/>
                </mxCell>
                <mxCell id="31" style="edgeStyle=none;html=1;entryX=-0.019;entryY=0.4;entryDx=0;entryDy=0;entryPerimeter=0;" parent="1" source="4" target="21" edge="1">
                    <mxGeometry relative="1" as="geometry">
                        <Array as="points">
                            <mxPoint x="369" y="323"/>
                            <mxPoint x="370" y="482"/>
                        </Array>
                    </mxGeometry>
                </mxCell>
                <mxCell id="4" value="Iphone" style="swimlane;fontStyle=1;align=center;verticalAlign=top;childLayout=stackLayout;horizontal=1;startSize=26;horizontalStack=0;resizeParent=1;resizeParentMax=0;resizeLast=0;collapsible=1;marginBottom=0;whiteSpace=wrap;html=1;" parent="1" vertex="1">
                    <mxGeometry x="129" y="264.5" width="210" height="116" as="geometry"/>
                </mxCell>
                <mxCell id="23" value="&amp;nbsp;+ Aparelho () void" style="text;html=1;align=left;verticalAlign=middle;resizable=0;points=[];autosize=1;strokeColor=none;fillColor=none;" parent="4" vertex="1">
                    <mxGeometry y="26" width="210" height="30" as="geometry"/>
                </mxCell>
                <mxCell id="24" value="&amp;nbsp;+ Musica() void" style="text;html=1;align=left;verticalAlign=middle;resizable=0;points=[];autosize=1;strokeColor=none;fillColor=none;" parent="4" vertex="1">
                    <mxGeometry y="56" width="210" height="30" as="geometry"/>
                </mxCell>
                <mxCell id="25" value="&amp;nbsp;+ Navegador() void" style="text;html=1;align=left;verticalAlign=middle;resizable=0;points=[];autosize=1;strokeColor=none;fillColor=none;" parent="4" vertex="1">
                    <mxGeometry y="86" width="210" height="30" as="geometry"/>
                </mxCell>
                <mxCell id="7" value="&amp;lt;&amp;lt;interface&amp;gt;&amp;gt; &lt;br&gt;AparelhoTelefonico" style="swimlane;fontStyle=1;align=center;verticalAlign=top;childLayout=stackLayout;horizontal=1;startSize=40;horizontalStack=0;resizeParent=1;resizeParentMax=0;resizeLast=0;collapsible=1;marginBottom=0;whiteSpace=wrap;html=1;" parent="1" vertex="1">
                    <mxGeometry x="449" y="100" width="210" height="130" as="geometry"/>
                </mxCell>
                <mxCell id="13" value="&amp;nbsp;+ ligar() String" style="text;html=1;align=left;verticalAlign=middle;resizable=0;points=[];autosize=1;strokeColor=none;fillColor=none;" parent="7" vertex="1">
                    <mxGeometry y="40" width="210" height="30" as="geometry"/>
                </mxCell>
                <mxCell id="15" value="&amp;nbsp;+ atender() String" style="text;html=1;align=left;verticalAlign=middle;resizable=0;points=[];autosize=1;strokeColor=none;fillColor=none;" parent="7" vertex="1">
                    <mxGeometry y="70" width="210" height="30" as="geometry"/>
                </mxCell>
                <mxCell id="16" value="&amp;nbsp;+ iniciarCorreioVoz() String" style="text;html=1;align=left;verticalAlign=middle;resizable=0;points=[];autosize=1;strokeColor=none;fillColor=none;" parent="7" vertex="1">
                    <mxGeometry y="100" width="210" height="30" as="geometry"/>
                </mxCell>
                <mxCell id="8" value="&amp;lt;&amp;lt;interface&amp;gt;&amp;gt;&lt;br&gt;ReprodutorMusical" style="swimlane;fontStyle=1;align=center;verticalAlign=top;childLayout=stackLayout;horizontal=1;startSize=45;horizontalStack=0;resizeParent=1;resizeParentMax=0;resizeLast=0;collapsible=1;marginBottom=0;whiteSpace=wrap;html=1;" parent="1" vertex="1">
                    <mxGeometry x="449" y="245.5" width="210" height="135" as="geometry"/>
                </mxCell>
                <mxCell id="17" value="&amp;nbsp;+ tocar() String" style="text;html=1;align=left;verticalAlign=middle;resizable=0;points=[];autosize=1;strokeColor=none;fillColor=none;" parent="8" vertex="1">
                    <mxGeometry y="45" width="210" height="30" as="geometry"/>
                </mxCell>
                <mxCell id="18" value="&amp;nbsp;+ pausar() String" style="text;html=1;align=left;verticalAlign=middle;resizable=0;points=[];autosize=1;strokeColor=none;fillColor=none;" parent="8" vertex="1">
                    <mxGeometry y="75" width="210" height="30" as="geometry"/>
                </mxCell>
                <mxCell id="19" value="&amp;nbsp;+ selecionarMusica() String" style="text;html=1;align=left;verticalAlign=middle;resizable=0;points=[];autosize=1;strokeColor=none;fillColor=none;" parent="8" vertex="1">
                    <mxGeometry y="105" width="210" height="30" as="geometry"/>
                </mxCell>
                <mxCell id="9" value="&amp;lt;&amp;lt;interface&amp;gt;&amp;gt;&lt;br&gt;NavegadorInternet" style="swimlane;fontStyle=1;align=center;verticalAlign=top;childLayout=stackLayout;horizontal=1;startSize=45;horizontalStack=0;resizeParent=1;resizeParentMax=0;resizeLast=0;collapsible=1;marginBottom=0;whiteSpace=wrap;html=1;" parent="1" vertex="1">
                    <mxGeometry x="449" y="395" width="210" height="135" as="geometry"/>
                </mxCell>
                <mxCell id="20" value="&amp;nbsp;+ exibirPagina() String" style="text;html=1;align=left;verticalAlign=middle;resizable=0;points=[];autosize=1;strokeColor=none;fillColor=none;" parent="9" vertex="1">
                    <mxGeometry y="45" width="210" height="30" as="geometry"/>
                </mxCell>
                <mxCell id="21" value="&amp;nbsp;+ adicionarNovaAba() String" style="text;html=1;align=left;verticalAlign=middle;resizable=0;points=[];autosize=1;strokeColor=none;fillColor=none;" parent="9" vertex="1">
                    <mxGeometry y="75" width="210" height="30" as="geometry"/>
                </mxCell>
                <mxCell id="22" value="&amp;nbsp;+ atualizarPagina() String" style="text;html=1;align=left;verticalAlign=middle;resizable=0;points=[];autosize=1;strokeColor=none;fillColor=none;" parent="9" vertex="1">
                    <mxGeometry y="105" width="210" height="30" as="geometry"/>
                </mxCell>
            </root>
        </mxGraphModel>
    </diagram>
</mxfile>